<?xml version="1.0" encoding="UTF-8" standalone="no"?>
<!DOCTYPE svg PUBLIC "-//W3C//DTD SVG 1.1//EN"
 "http://www.w3.org/Graphics/SVG/1.1/DTD/svg11.dtd">
<!-- Generated by graphviz version 2.38.0 (20140413.2041)
 -->
<!-- Title: %3 Pages: 1 -->
<svg width="650pt" height="365pt"
 viewBox="0.00 0.00 649.55 365.40" xmlns="http://www.w3.org/2000/svg" xmlns:xlink="http://www.w3.org/1999/xlink">
<g id="graph0" class="graph" transform="scale(1 1) rotate(0) translate(4 361.405)">
<title>%3</title>
<polygon fill="white" stroke="none" points="-4,4 -4,-361.405 645.545,-361.405 645.545,4 -4,4"/>
<!-- merge -->
<g id="node1" class="node"><title>merge</title>
<ellipse fill="none" stroke="black" cx="320.773" cy="-181.592" rx="32.0942" ry="32.0942"/>
<text text-anchor="middle" x="320.773" y="-177.392" font-family="Times,serif" font-size="14.00">merge</text>
</g>
<!-- final_processing -->
<g id="node7" class="node"><title>final_processing</title>
<polygon fill="none" stroke="black" points="374.538,-357.288 267.007,-357.288 267.007,-249.756 374.538,-249.756 374.538,-357.288"/>
<text text-anchor="middle" x="320.773" y="-299.322" font-family="Times,serif" font-size="14.00">final_processing</text>
</g>
<!-- merge&#45;&gt;final_processing -->
<g id="edge6" class="edge"><title>merge&#45;&gt;final_processing</title>
<path fill="none" stroke="black" d="M320.773,-213.789C320.773,-221.757 320.773,-230.612 320.773,-239.556"/>
<polygon fill="black" stroke="black" points="317.273,-239.65 320.773,-249.65 324.273,-239.65 317.273,-239.65"/>
</g>
<!-- processing_0 -->
<g id="node2" class="node"><title>processing_0</title>
<ellipse fill="none" stroke="black" cx="56.7725" cy="-56.7725" rx="56.5459" ry="56.5459"/>
<text text-anchor="middle" x="56.7725" y="-52.5725" font-family="Times,serif" font-size="14.00">processing_0</text>
</g>
<!-- processing_0&#45;&gt;merge -->
<g id="edge1" class="edge"><title>processing_0&#45;&gt;merge</title>
<path fill="none" stroke="black" d="M97.6268,-96.29C105.588,-102.611 114.151,-108.677 122.773,-113.545 173.425,-142.148 238.268,-161.217 279.676,-171.478"/>
<polygon fill="black" stroke="black" points="278.876,-174.886 289.419,-173.837 280.524,-168.082 278.876,-174.886"/>
</g>
<!-- processing_1 -->
<g id="node3" class="node"><title>processing_1</title>
<ellipse fill="none" stroke="black" cx="188.773" cy="-56.7725" rx="56.5459" ry="56.5459"/>
<text text-anchor="middle" x="188.773" y="-52.5725" font-family="Times,serif" font-size="14.00">processing_1</text>
</g>
<!-- processing_1&#45;&gt;merge -->
<g id="edge2" class="edge"><title>processing_1&#45;&gt;merge</title>
<path fill="none" stroke="black" d="M230.176,-96.2964C249.626,-114.394 272.402,-135.586 290.252,-152.194"/>
<polygon fill="black" stroke="black" points="287.87,-154.759 297.576,-159.009 292.639,-149.634 287.87,-154.759"/>
</g>
<!-- processing_2 -->
<g id="node4" class="node"><title>processing_2</title>
<ellipse fill="none" stroke="black" cx="320.773" cy="-56.7725" rx="56.5459" ry="56.5459"/>
<text text-anchor="middle" x="320.773" y="-52.5725" font-family="Times,serif" font-size="14.00">processing_2</text>
</g>
<!-- processing_2&#45;&gt;merge -->
<g id="edge3" class="edge"><title>processing_2&#45;&gt;merge</title>
<path fill="none" stroke="black" d="M320.773,-113.791C320.773,-122.421 320.773,-131.194 320.773,-139.421"/>
<polygon fill="black" stroke="black" points="317.273,-139.499 320.773,-149.499 324.273,-139.499 317.273,-139.499"/>
</g>
<!-- processing_3 -->
<g id="node5" class="node"><title>processing_3</title>
<ellipse fill="none" stroke="black" cx="452.773" cy="-56.7725" rx="56.5459" ry="56.5459"/>
<text text-anchor="middle" x="452.773" y="-52.5725" font-family="Times,serif" font-size="14.00">processing_3</text>
</g>
<!-- processing_3&#45;&gt;merge -->
<g id="edge4" class="edge"><title>processing_3&#45;&gt;merge</title>
<path fill="none" stroke="black" d="M411.369,-96.2964C391.919,-114.394 369.143,-135.586 351.294,-152.194"/>
<polygon fill="black" stroke="black" points="348.906,-149.634 343.969,-159.009 353.675,-154.759 348.906,-149.634"/>
</g>
<!-- processing_4 -->
<g id="node6" class="node"><title>processing_4</title>
<ellipse fill="none" stroke="black" cx="584.773" cy="-56.7725" rx="56.5459" ry="56.5459"/>
<text text-anchor="middle" x="584.773" y="-52.5725" font-family="Times,serif" font-size="14.00">processing_4</text>
</g>
<!-- processing_4&#45;&gt;merge -->
<g id="edge5" class="edge"><title>processing_4&#45;&gt;merge</title>
<path fill="none" stroke="black" d="M543.918,-96.29C535.957,-102.611 527.394,-108.677 518.773,-113.545 468.12,-142.148 403.277,-161.217 361.869,-171.478"/>
<polygon fill="black" stroke="black" points="361.022,-168.082 352.126,-173.837 362.669,-174.886 361.022,-168.082"/>
</g>
</g>
</svg>
