<?xml version="1.0" standalone="yes"?>

<svg version="1.1" viewBox="0.0 0.0 960.0 540.0" fill="none" stroke="none" stroke-linecap="square" stroke-miterlimit="10" xmlns="http://www.w3.org/2000/svg" xmlns:xlink="http://www.w3.org/1999/xlink"><clipPath id="p.0"><path d="m0 0l960.0 0l0 540.0l-960.0 0l0 -540.0z" clip-rule="nonzero"></path></clipPath><g clip-path="url(#p.0)"><path fill="#000000" fill-opacity="0.0" d="m0 0l960.0 0l0 540.0l-960.0 0z" fill-rule="evenodd"></path><path fill="#000000" fill-opacity="0.0" d="m191.00262 130.97638l546.89764 0l0 218.96063l-546.89764 0z" fill-rule="evenodd"></path><path fill="#999999" d="m252.95145 217.37074q1.59375 0 3.015625 0.609375q1.4375 0.609375 2.484375 1.6875q1.0625 1.078125 1.671875 2.515625q0.609375 1.421875 0.609375 3.0625q0 1.59375 -0.609375 3.0q-0.609375 1.40625 -1.671875 2.46875q-1.046875 1.046875 -2.484375 1.65625q-1.421875 0.609375 -3.015625 0.609375q-1.640625 0 -3.046875 -0.609375q-1.40625 -0.609375 -2.46875 -1.65625q-1.046875 -1.0625 -1.65625 -2.46875q-0.609375 -1.40625 -0.609375 -3.0q0 -1.640625 0.609375 -3.0625q0.609375 -1.4375 1.65625 -2.515625q1.0625 -1.078125 2.46875 -1.6875q1.40625 -0.609375 3.046875 -0.609375zm71.53125 1.921875q0 2.484375 -0.84375 4.453125q-0.84375 1.96875 -2.296875 3.5q-1.453125 1.515625 -3.375 2.59375q-1.921875 1.078125 -4.109375 1.78125q-2.171875 0.703125 -4.46875 1.03125q-2.296875 0.328125 -4.5 0.328125q-4.78125 0 -8.796875 -0.421875q-4.0 -0.421875 -7.84375 -1.359375l0 -7.5q4.125 1.171875 8.203125 1.78125q4.078125 0.609375 8.109375 0.609375q5.859375 0 8.671875 -1.59375q2.8125 -1.59375 2.8125 -4.546875q0 -1.265625 -0.453125 -2.265625q-0.4375 -1.015625 -1.609375 -1.921875q-1.171875 -0.921875 -3.640625 -1.90625q-2.453125 -0.984375 -6.71875 -2.25q-3.1875 -0.9375 -5.890625 -2.125q-2.6875 -1.203125 -4.65625 -2.84375q-1.96875 -1.640625 -3.09375 -3.84375q-1.125 -2.203125 -1.125 -5.203125q0 -1.96875 0.90625 -4.3125q0.921875 -2.34375 3.125 -4.359375q2.203125 -2.015625 5.953125 -3.34375q3.75 -1.34375 9.375 -1.34375q2.765625 0 6.140625 0.3125q3.375 0.296875 7.03125 1.046875l0 7.265625q-3.84375 -0.9375 -7.296875 -1.375q-3.4375 -0.453125 -5.96875 -0.453125q-3.046875 0 -5.140625 0.46875q-2.078125 0.46875 -3.375 1.296875q-1.28125 0.8125 -1.84375 1.921875q-0.5625 1.09375 -0.5625 2.359375q0 1.265625 0.484375 2.296875q0.5 1.03125 1.828125 2.0q1.34375 0.953125 3.734375 1.921875q2.390625 0.953125 6.234375 2.078125q4.171875 1.21875 7.03125 2.5625q2.859375 1.328125 4.640625 2.96875q1.78125 1.640625 2.546875 3.703125q0.78125 2.0625 0.78125 4.6875zm53.34375 12.84375l-7.3125 0l-0.28125 -7.59375q-2.109375 2.4375 -4.015625 4.0625q-1.890625 1.609375 -3.765625 2.59375q-1.875 0.984375 -3.78125 1.375q-1.890625 0.40625 -4.0 0.40625q-7.265625 0 -10.96875 -4.265625q-3.703125 -4.265625 -3.703125 -12.890625l0 -30.75l8.15625 0l0 30.09375q0 10.828125 8.15625 10.828125q1.5 0 2.921875 -0.4375q1.4375 -0.453125 3.0 -1.546875q1.578125 -1.109375 3.375 -2.984375q1.8125 -1.875 4.0625 -4.734375l0 -31.21875l8.15625 0l0 47.0625zm55.171875 -24.375q0 5.859375 -1.625 10.484375q-1.609375 4.609375 -4.59375 7.828125q-2.96875 3.203125 -7.234375 4.921875q-4.265625 1.703125 -9.609375 1.703125q-4.171875 0 -8.53125 -0.796875q-4.359375 -0.796875 -8.625 -2.53125l0 -63.46875l8.15625 0l0 18.234375l-0.375 8.71875q3.515625 -4.734375 7.515625 -6.671875q4.015625 -1.953125 8.609375 -1.953125q4.03125 0 7.078125 1.6875q3.046875 1.6875 5.109375 4.765625q2.0625 3.0625 3.09375 7.40625q1.03125 4.328125 1.03125 9.671875zm-8.34375 0.375q0 -3.703125 -0.546875 -6.796875q-0.53125 -3.09375 -1.703125 -5.296875q-1.171875 -2.203125 -3.0 -3.4375q-1.828125 -1.25 -4.359375 -1.25q-1.546875 0 -3.140625 0.5q-1.59375 0.484375 -3.3125 1.640625q-1.703125 1.140625 -3.609375 3.046875q-1.890625 1.890625 -4.046875 4.703125l0 22.828125q2.390625 0.9375 4.875 1.484375q2.484375 0.53125 4.734375 0.53125q2.8125 0 5.359375 -0.890625q2.5625 -0.890625 4.5 -2.96875q1.953125 -2.09375 3.09375 -5.53125q1.15625 -3.453125 1.15625 -8.5625zm54.46875 24.0l0 -33.796875q0 -2.203125 -0.171875 -3.609375q-0.15625 -1.40625 -0.515625 -2.21875q-0.34375 -0.828125 -0.890625 -1.15625q-0.53125 -0.328125 -1.328125 -0.328125q-0.9375 0 -1.734375 0.5625q-0.796875 0.5625 -1.71875 1.828125q-0.90625 1.265625 -2.015625 3.359375q-1.09375 2.078125 -2.59375 5.125l0 30.234375l-7.453125 0l0 -32.90625q0 -2.578125 -0.171875 -4.171875q-0.15625 -1.59375 -0.515625 -2.484375q-0.34375 -0.890625 -0.90625 -1.21875q-0.5625 -0.328125 -1.359375 -0.328125q-0.84375 0 -1.59375 0.46875q-0.75 0.46875 -1.671875 1.6875q-0.90625 1.21875 -2.03125 3.328125q-1.125 2.109375 -2.671875 5.390625l0 30.234375l-7.5 0l0 -47.0625l6.234375 0l0.375 8.953125q1.21875 -2.671875 2.359375 -4.546875q1.15625 -1.875 2.375 -3.015625q1.21875 -1.15625 2.59375 -1.6875q1.390625 -0.546875 3.078125 -0.546875q3.796875 0 5.765625 2.484375q1.96875 2.484375 1.96875 7.6875q1.125 -2.4375 2.203125 -4.328125q1.078125 -1.90625 2.3125 -3.1875q1.25 -1.296875 2.75 -1.96875q1.5 -0.6875 3.46875 -0.6875q8.859375 0 8.859375 13.640625l0 34.265625l-7.5 0zm35.25003 -40.3125l-13.9219055 0l0 -6.75l22.171906 0l0 40.265625l14.015625 0l0 6.796875l-37.734406 0l0 -6.796875l15.4687805 0l0 -33.515625zm2.859375 -26.484375q1.359375 0 2.53125 0.5q1.171875 0.484375 2.03125 1.375q0.875 0.890625 1.359375 2.046875q0.5 1.140625 0.5 2.5q0 1.3125 -0.5 2.484375q-0.484375 1.171875 -1.359375 2.0625q-0.859375 0.890625 -2.03125 1.390625q-1.171875 0.484375 -2.53125 0.484375q-1.359375 0 -2.53125 -0.484375q-1.171875 -0.5 -2.046875 -1.390625q-0.8594055 -0.890625 -1.3594055 -2.0625q-0.484375 -1.171875 -0.484375 -2.484375q0 -1.359375 0.484375 -2.5q0.5 -1.15625 1.3594055 -2.046875q0.875 -0.890625 2.046875 -1.375q1.171875 -0.5 2.53125 -0.5zm71.8125 66.140625q-2.765625 0.703125 -5.71875 1.0q-2.953125 0.3125 -6.0 0.3125q-8.859375 0 -13.21875 -4.0q-4.359375 -4.015625 -4.359375 -12.3125l0 -24.5625l-13.171875 0l0 -6.84375l13.171875 0l0 -12.9375l8.15625 -2.109375l0 15.046875l21.140625 0l0 6.84375l-21.140625 0l0 23.90625q0 5.0625 2.6875 7.578125q2.703125 2.5 7.953125 2.5q2.25 0 4.921875 -0.34375q2.671875 -0.359375 5.578125 -1.109375l0 7.03125zm43.03125 20.34375q-21.609375 -20.015625 -21.609375 -44.25q0 -5.671875 1.140625 -11.3125q1.15625 -5.65625 3.703125 -11.328125q2.5625 -5.671875 6.75 -11.34375q4.203125 -5.671875 10.203125 -11.25l4.734375 4.828125q-18.1875 17.953125 -18.1875 39.796875q0 10.875 4.59375 20.90625q4.59375 10.03125 13.59375 18.9375l-4.921875 5.015625zm34.21875 -89.484375q21.609375 20.015625 21.609375 44.53125q0 5.0625 -1.03125 10.5q-1.03125 5.4375 -3.515625 11.140625q-2.484375 5.6875 -6.6875 11.546875q-4.1875 5.859375 -10.5625 11.765625l-4.734375 -4.828125q9.140625 -9.046875 13.640625 -18.890625q4.5 -9.84375 4.5 -20.625q0 -22.3125 -18.140625 -40.125l4.921875 -5.015625z" fill-rule="nonzero"></path><path fill="#000000" d="m304.57645 309.51074l0 22.265625l-7.5 0l0 -56.875l20.96875 0q9.34375 0 14.625 4.765625q5.296875 4.765625 5.296875 12.609375q0 8.28125 -5.171875 12.765625q-5.171875 4.46875 -14.828125 4.46875l-13.390625 0zm0 -6.140625l13.46875 0q6.015625 0 9.21875 -2.828125q3.203125 -2.828125 3.203125 -8.1875q0 -5.078125 -3.203125 -8.125q-3.203125 -3.046875 -8.78125 -3.15625l-13.90625 0l0 22.296875zm55.65625 17.8125l9.84375 -31.671875l7.734375 0l-16.984375 48.796875q-3.953125 10.546875 -12.546875 10.546875l-1.359375 -0.125l-2.703125 -0.5l0 -5.859375l1.953125 0.15625q3.671875 0 5.71875 -1.484375q2.0625 -1.484375 3.390625 -5.4375l1.59375 -4.296875l-15.078125 -41.796875l7.890625 0l10.546875 31.671875zm66.99219 -7.453125q-1.046875 9.015625 -6.65625 13.921875q-5.609375 4.90625 -14.90625 4.90625q-10.078125 0 -16.15625 -7.21875q-6.0625 -7.234375 -6.0625 -19.34375l0 -5.46875q0 -7.9375 2.828125 -13.953125q2.828125 -6.015625 8.015625 -9.234375q5.203125 -3.21875 12.046875 -3.21875q9.0625 0 14.53125 5.0625q5.46875 5.046875 6.359375 14.0l-7.53125 0q-0.984375 -6.796875 -4.25 -9.84375q-3.25 -3.046875 -9.109375 -3.046875q-7.1875 0 -11.28125 5.3125q-4.078125 5.3125 -4.078125 15.109375l0 5.515625q0 9.25 3.859375 14.71875q3.875 5.46875 10.828125 5.46875q6.25 0 9.59375 -2.828125q3.34375 -2.828125 4.4375 -9.859375l7.53125 0zm7.1953125 -3.484375q0 -6.203125 2.4375 -11.15625q2.4375 -4.96875 6.796875 -7.65625q4.359375 -2.703125 9.9375 -2.703125q8.640625 0 13.96875 5.984375q5.328125 5.96875 5.328125 15.890625l0 0.5q0 6.171875 -2.359375 11.078125q-2.359375 4.90625 -6.765625 7.640625q-4.390625 2.734375 -10.09375 2.734375q-8.59375 0 -13.921875 -5.96875q-5.328125 -5.984375 -5.328125 -15.828125l0 -0.515625zm7.265625 0.859375q0 7.03125 3.25 11.296875q3.265625 4.25 8.734375 4.25q5.515625 0 8.75 -4.3125q3.25 -4.3125 3.25 -12.09375q0 -6.953125 -3.3125 -11.265625q-3.296875 -4.3125 -8.765625 -4.3125q-5.34375 0 -8.625 4.265625q-3.28125 4.25 -3.28125 12.171875zm47.109375 -21.59375l0.234375 5.3125q4.84375 -6.09375 12.65625 -6.09375q13.3906555 0 13.5156555 15.109375l0 27.9375l-7.2344055 0l0 -27.96875q-0.03125 -4.578125 -2.09375 -6.765625q-2.046875 -2.1875 -6.375 -2.1875q-3.515625 0 -6.171875 1.875q-2.65625 1.875 -4.140625 4.921875l0 30.125l-7.234375 0l0 -42.265625l6.84375 0zm35.546906 20.78125q0 -9.734375 4.609375 -15.640625q4.609375 -5.921875 12.0625 -5.921875q7.421875 0 11.765625 5.078125l0 -22.03125l7.21875 0l0 60.0l-6.640625 0l-0.34375 -4.53125q-4.34375 5.3125 -12.078125 5.3125q-7.34375 0 -11.96875 -6.015625q-4.625 -6.015625 -4.625 -15.703125l0 -0.546875zm7.21875 0.8125q0 7.1875 2.96875 11.25q2.96875 4.0625 8.203125 4.0625q6.875 0 10.046875 -6.171875l0 -19.40625q-3.25 -5.984375 -9.96875 -5.984375q-5.3125 0 -8.28125 4.109375q-2.96875 4.09375 -2.96875 12.140625zm37.742188 -0.859375q0 -6.203125 2.4375 -11.15625q2.4375 -4.96875 6.796875 -7.65625q4.359375 -2.703125 9.9375 -2.703125q8.640625 0 13.96875 5.984375q5.328125 5.96875 5.328125 15.890625l0 0.5q0 6.171875 -2.359375 11.078125q-2.359375 4.90625 -6.765625 7.640625q-4.390625 2.734375 -10.09375 2.734375q-8.59375 0 -13.921875 -5.96875q-5.328125 -5.984375 -5.328125 -15.828125l0 -0.515625zm7.265625 0.859375q0 7.03125 3.25 11.296875q3.265625 4.25 8.734375 4.25q5.515625 0 8.75 -4.3125q3.25 -4.3125 3.25 -12.09375q0 -6.953125 -3.3125 -11.265625q-3.296875 -4.3125 -8.765625 -4.3125q-5.34375 0 -8.625 4.265625q-3.28125 4.25 -3.28125 12.171875zm60.703125 -15.109375q-1.640625 -0.28125 -3.5625 -0.28125q-7.109375 0 -9.640625 6.0625l0 30.0l-7.234375 0l0 -42.265625l7.03125 0l0.125 4.875q3.546875 -5.65625 10.078125 -5.65625q2.109375 0 3.203125 0.546875l0 6.71875z" fill-rule="nonzero"></path></g></svg>

